<svg width="106" height="106" viewBox="0 0 106 106" fill="none" xmlns="http://www.w3.org/2000/svg">
<rect width="106" height="106" fill="white"/>
<path d="M23.0094 55.6781C23.0094 50.8093 23.0094 45.9405 23.0094 41.0716C23.0094 39.5554 23.5368 39.2352 24.827 39.9886C27.8123 41.7214 30.7694 43.4825 33.7642 45.1871C34.4987 45.6014 34.8189 46.0912 34.7907 46.9576C34.7342 48.7751 34.8283 50.6021 34.7436 52.4197C34.7059 53.3144 35.0167 53.7287 35.8172 54.0678C37.7101 54.8777 37.6913 54.9153 37.6913 52.8717C37.6913 51.7605 37.6818 50.6398 37.6913 49.5285C37.7007 48.2195 38.2281 47.8711 39.3393 48.4926C42.9085 50.4703 46.4589 52.4668 50.0187 54.4539C50.5932 54.7741 50.8475 55.1884 50.8475 55.8759C50.8286 65.7643 50.8381 75.6432 50.8286 85.5315C50.8286 86.7935 50.2353 87.1419 49.1335 86.5015C40.686 81.6515 32.2385 76.7827 23.7817 71.9327C23.1413 71.5654 23 71.0851 23 70.3977C23.0188 65.4912 23.0094 60.5847 23.0094 55.6781ZM49.077 84.4391C49.077 75.0122 49.077 65.8019 49.077 56.5916C49.077 56.262 49.1052 55.9701 48.7191 55.7535C45.6867 54.0678 42.6637 52.3632 39.4806 50.5739C39.4806 52.5986 39.4994 54.435 39.4806 56.2715C39.4712 57.2885 38.859 57.7029 38.068 57.2038C36.7401 56.375 35.3181 55.7535 33.9149 55.0848C33.2368 54.7552 32.9637 54.2938 32.9825 53.5027C33.039 51.5721 32.9731 49.6415 33.0202 47.711C33.039 47.0235 32.8036 46.6562 32.2009 46.3172C30.0066 45.0835 27.8312 43.8215 25.684 42.5031C24.827 41.9757 24.7705 42.2677 24.7705 43.0776C24.7893 51.9206 24.7893 60.7636 24.7705 69.6066C24.7705 70.3129 25.0248 70.6425 25.6086 70.9721C29.9595 73.4395 34.301 75.9351 38.633 78.4308C42.061 80.399 45.4889 82.3767 49.0958 84.4485L49.077 84.4391Z" fill="black"/>
<path d="M54.0683 70.7084C54.0683 65.8396 54.0871 60.9708 54.0494 56.1113C54.0494 55.2544 54.3319 54.7552 55.0665 54.3409C63.4481 49.6039 71.7354 44.6879 80.1923 40.0734C81.7556 39.2164 82.17 39.4612 82.17 41.2223C82.17 50.9223 82.17 60.6129 82.17 70.3129C82.17 71.0192 82.0947 71.5654 81.3789 71.9704C72.9032 76.7639 64.5593 81.8022 55.98 86.4074C55.6598 86.5769 55.3584 86.8406 54.9629 86.8029C54.0682 86.7276 54.0777 86.0777 54.0777 85.4185C54.0777 80.512 54.0777 75.6149 54.0777 70.7084H54.0683ZM55.8387 70.0775C55.8387 74.4566 55.8387 78.8451 55.8387 83.2243C55.8387 84.4862 55.8482 84.505 56.9877 83.8552C64.5499 79.5326 72.1027 75.2006 79.6838 70.9062C80.3618 70.5201 80.4654 70.0492 80.4654 69.3712C80.4466 60.6412 80.456 51.9112 80.456 43.1812C80.456 41.9192 80.456 41.9098 79.3918 42.5125C71.8296 46.8257 64.2674 51.1578 56.6863 55.4427C56.0459 55.8006 55.8199 56.1961 55.8293 56.9212C55.867 61.3004 55.8482 65.6889 55.8482 70.068L55.8387 70.0775Z" fill="black"/>
<path d="M51.5915 52.5045C51.2901 52.3538 50.9982 52.2031 50.7062 52.0524C47.2971 50.1784 43.888 48.3043 40.4788 46.4302C39.3299 45.7992 39.3017 45.1588 40.4318 44.4996C49.1335 39.4142 57.8447 34.3476 66.537 29.2621C67.3186 28.8007 67.9779 28.7724 68.7878 29.2339C72.3852 31.2963 76.0298 33.2928 79.6461 35.3176C80.8421 35.9956 80.8516 36.6266 79.6367 37.2952C70.53 42.2677 61.4233 47.2213 52.3166 52.1749C52.0906 52.2973 51.8551 52.382 51.582 52.5045H51.5915ZM77.3671 36.2593C77.2258 35.9674 76.9433 35.8544 76.689 35.7037C73.9674 34.1875 71.2269 32.6995 68.5335 31.1456C67.8837 30.7689 67.4034 30.8443 66.8007 31.1927C58.9559 35.7884 51.1112 40.3653 43.257 44.9234C42.4753 45.3754 42.7108 45.5732 43.3229 45.9028C45.8656 47.2778 48.4178 48.6527 50.9228 50.0842C51.4973 50.4138 51.874 50.3573 52.4296 50.0465C57.176 47.4379 61.9413 44.8763 66.7065 42.2959C70.0591 40.4689 73.4118 38.6419 76.7644 36.8055C77.0092 36.6737 77.3483 36.6266 77.3859 36.2499L77.3671 36.2593Z" fill="black"/>
<path d="M36.9661 42.23C36.7307 42.1358 36.5141 42.0699 36.3257 41.9757C32.9543 40.3465 29.5922 38.7079 26.3149 36.8903C25.8347 36.6266 25.2319 36.4194 25.2319 35.7508C25.2319 35.0727 25.8629 34.8938 26.3338 34.6207C34.6965 29.8554 43.0686 25.0996 51.4314 20.3155C52.1565 19.9012 52.7215 19.8917 53.4655 20.3061C56.3755 21.9259 59.3326 23.4704 62.2614 25.0525C64.0884 26.0414 64.1073 26.484 62.3839 27.5764C55.9235 31.6447 49.2182 35.3081 42.5883 39.0751C40.978 39.9886 39.3676 40.9115 37.7666 41.825C37.5123 41.9663 37.2486 42.0981 36.9849 42.23H36.9661ZM36.8248 40.1864C37.145 40.0263 37.4464 39.8945 37.7383 39.7344C39.3864 38.802 41.0156 37.8509 42.6731 36.928C48.4648 33.6789 54.2566 30.4299 59.9165 26.9737C60.1614 26.823 60.5663 26.7477 60.5757 26.4369C60.5946 26.0319 60.1331 25.9943 59.86 25.8436C57.6092 24.6287 55.3396 23.4327 53.0982 22.2084C52.618 21.9447 52.2413 21.9447 51.7704 22.2273C49.6797 23.4327 47.5702 24.6099 45.4795 25.7965C40.0645 28.876 34.6494 31.9555 29.2344 35.0539C28.9047 35.2422 28.3397 35.3364 28.3774 35.8073C28.4056 36.1746 28.9236 36.2593 29.2438 36.4288C31.5322 37.5872 33.8207 38.7267 36.1185 39.8756C36.3446 39.9886 36.58 40.0922 36.8248 40.2052V40.1864Z" fill="black"/>
<path d="M77.3765 36.2593C77.3388 36.636 76.9904 36.6831 76.755 36.8149C73.4118 38.6514 70.0591 40.4878 66.6971 42.3053C61.9413 44.8857 57.1666 47.4473 52.4202 50.0559C51.8646 50.3573 51.4879 50.4138 50.9134 50.0936C48.3989 48.6621 45.8562 47.2778 43.3135 45.9122C42.7014 45.5826 42.4659 45.3943 43.2476 44.9328C51.1018 40.3748 58.9559 35.7884 66.7913 31.2021C67.394 30.8537 67.8743 30.7783 68.5241 31.155C71.2269 32.7089 73.958 34.1969 76.6796 35.7131C76.9339 35.8544 77.2164 35.9768 77.3577 36.2687L77.3765 36.2593Z" fill="#971E3A"/>
<path d="M36.8249 40.1864C36.58 40.0734 36.3446 39.9698 36.1185 39.8568C33.8301 38.7079 31.5322 37.5683 29.2438 36.41C28.9236 36.2499 28.4056 36.1557 28.3774 35.7884C28.3397 35.3176 28.9048 35.2234 29.2344 35.035C34.64 31.9367 40.0645 28.8572 45.4795 25.7777C47.5796 24.5816 49.6891 23.4139 51.7704 22.2084C52.2413 21.9353 52.618 21.9259 53.0982 22.1896C55.3396 23.4233 57.6092 24.6099 59.86 25.8248C60.1331 25.9754 60.5946 26.0131 60.5757 26.4181C60.5569 26.7288 60.1614 26.8042 59.9165 26.9549C54.2472 30.4111 48.4649 33.6695 42.6731 36.9091C41.025 37.832 39.3864 38.7832 37.7383 39.7155C37.4464 39.8756 37.145 40.0075 36.8249 40.1676V40.1864Z" fill="#971E3A"/>
</svg>
