<svg width="186" height="72" viewBox="0 0 186 72" fill="none" xmlns="http://www.w3.org/2000/svg">
<g clip-path="url(#clip0_289_467)">
<path d="M96.24 25.06C100.01 26.4 101.03 29.31 101.38 32.65C101.78 36.43 101.5 40.22 101.57 44C101.61 46.12 101.49 48.26 102.43 50.42C99.85 50.42 97.42 50.4 94.99 50.43C94.41 50.43 94.36 50.05 94.27 49.7C93.84 48.13 93.78 46.51 93.77 44.89C93.75 41.5 93.77 38.1 93.76 34.71C93.76 34.16 93.76 33.6 93.66 33.06C93.19 30.18 91.96 29.14 89.03 29.11C87.1367 29.09 86.19 30.0367 86.19 31.95C86.19 37.75 86.17 43.55 86.21 49.35C86.21 50.23 86.02 50.48 85.12 50.44C83.15 50.36 81.17 50.39 79.2 50.44C78.53 50.45 78.35 50.27 78.35 49.6C78.37 33.58 78.36 17.56 78.37 1.54C78.37 1.14 78.2 0.669997 78.95 0.689997C83.44 0.809997 87.95 0.449997 92.43 0.889997C97.62 1.4 100.51 4.01 101.25 9.14C101.7 12.26 101.69 15.44 101.17 18.57C100.69 21.47 99.27 23.71 96.24 25.06ZM86.19 14.87C86.19 17 86.2 19.12 86.19 21.25C86.19 21.76 86.23 22.06 86.87 22.02C87.85 21.96 88.84 22.03 89.82 21.98C91.81 21.87 93.19 20.74 93.5 18.78C93.93 16.09 93.93 13.36 93.49 10.67C93.18 8.8 91.92 7.85 90 7.81C89.06 7.79 88.11 7.85 87.16 7.79C86.42 7.74 86.15 7.92 86.17 8.73C86.23 10.78 86.19 12.83 86.19 14.87Z" fill="black"/>
<path d="M130.23 25.56C130.23 29.86 130.23 34.16 130.23 38.46C130.23 40 130.08 41.53 129.7 43.03C128.57 47.58 125.32 50.36 120.65 50.96C118.5 51.24 116.39 51.16 114.32 50.61C110.09 49.49 107.3 46.05 106.76 41.46C106.61 40.17 106.53 38.87 106.54 37.57C106.55 29.29 106.54 21 106.54 12.72C106.54 11.02 106.72 9.34 107.19 7.7C108.44 3.37 111.58 0.739999 116.05 0.169999C118.24 -0.110001 120.39 -0.0400006 122.5 0.539999C126.74 1.71 129.49 5.12 130.01 9.72C130.16 11.06 130.23 12.39 130.23 13.73C130.22 17.67 130.23 21.62 130.23 25.56ZM114.36 25.56C114.36 26.66 114.36 27.77 114.36 28.87C114.36 32.57 114.32 36.28 114.39 39.98C114.44 42.6 115.9 44.01 118.32 44.02C120.84 44.03 122.24 42.64 122.38 39.98C122.4 39.55 122.4 39.11 122.4 38.68C122.4 29.93 122.4 21.18 122.4 12.43C122.4 11.88 122.42 11.32 122.36 10.78C122.1 8.36 120.75 7.1 118.44 7.09C116.04 7.08 114.67 8.32 114.4 10.78C114.34 11.33 114.36 11.88 114.36 12.43C114.36 16.8 114.36 21.18 114.36 25.55V25.56Z" fill="black"/>
<path d="M158.64 25.55C158.64 29.89 158.64 34.23 158.64 38.57C158.64 40.31 158.45 42.04 157.92 43.7C156.58 47.92 153.64 50.25 149.31 50.93C147.09 51.28 144.9 51.18 142.74 50.61C138.51 49.49 135.71 46.06 135.17 41.47C135.02 40.18 134.94 38.88 134.95 37.58C134.96 29.3 134.95 21.01 134.95 12.73C134.95 11.03 135.12 9.35 135.6 7.71C136.85 3.38 139.99 0.749999 144.46 0.169999C146.65 -0.110001 148.8 -0.0400006 150.91 0.539999C155.15 1.7 157.9 5.11 158.43 9.72C158.58 11.06 158.65 12.39 158.65 13.73C158.64 17.67 158.65 21.62 158.65 25.56L158.64 25.55ZM142.77 25.51C142.77 25.9 142.77 26.3 142.77 26.69C142.77 31.06 142.74 35.44 142.79 39.81C142.82 42.57 144.27 44.02 146.8 44.02C149.32 44.02 150.71 42.56 150.8 39.79C150.81 39.44 150.81 39.08 150.81 38.73C150.81 29.94 150.81 21.15 150.81 12.36C150.81 11.81 150.83 11.25 150.76 10.71C150.46 8.3 149.12 7.09 146.77 7.09C144.44 7.09 143.09 8.32 142.81 10.73C142.75 11.28 142.76 11.83 142.76 12.38C142.76 16.75 142.76 21.13 142.76 25.5L142.77 25.51Z" fill="black"/>
<path d="M177.59 29.11C177.59 35.86 177.57 42.61 177.61 49.35C177.61 50.23 177.41 50.48 176.52 50.44C174.63 50.36 172.73 50.36 170.84 50.44C169.95 50.48 169.75 50.23 169.75 49.35C169.78 35.93 169.75 22.52 169.8 9.1C169.8 8.03 169.55 7.72 168.47 7.77C166.46 7.86 164.45 7.77 162.43 7.81C161.81 7.82 161.62 7.65 161.64 7.03C161.68 5.18 161.68 3.32 161.64 1.47C161.63 0.840002 161.82 0.690002 162.43 0.690002C169.93 0.710002 177.43 0.710002 184.92 0.690002C185.53 0.690002 185.73 0.840002 185.71 1.47C185.67 3.32 185.67 5.18 185.71 7.03C185.72 7.66 185.54 7.83 184.92 7.82C182.79 7.78 180.66 7.84 178.53 7.79C177.76 7.77 177.56 7.98 177.56 8.76C177.59 15.55 177.58 22.34 177.58 29.12L177.59 29.11Z" fill="black"/>
<path d="M0.01 38.7C0.01 33.53 0.01 28.36 0.01 23.19C0.01 21.58 0.57 21.24 1.94 22.04C5.11 23.88 8.25 25.75 11.43 27.56C12.21 28 12.55 28.52 12.52 29.44C12.46 31.37 12.56 33.31 12.47 35.24C12.43 36.19 12.76 36.63 13.61 36.99C15.62 37.85 15.6 37.89 15.6 35.72C15.6 34.54 15.59 33.35 15.6 32.17C15.61 30.78 16.17 30.41 17.35 31.07C21.14 33.17 24.91 35.29 28.69 37.4C29.3 37.74 29.57 38.18 29.57 38.91C29.55 49.41 29.56 59.9 29.55 70.4C29.55 71.74 28.92 72.11 27.75 71.43C18.78 66.28 9.81 61.11 0.83 55.96C0.15 55.57 0 55.06 0 54.33C0.02 49.12 0.01 43.91 0.01 38.7ZM27.69 69.24C27.69 59.23 27.69 49.45 27.69 39.67C27.69 39.32 27.72 39.01 27.31 38.78C24.09 36.99 20.88 35.18 17.5 33.28C17.5 35.43 17.52 37.38 17.5 39.33C17.49 40.41 16.84 40.85 16 40.32C14.59 39.44 13.08 38.78 11.59 38.07C10.87 37.72 10.58 37.23 10.6 36.39C10.66 34.34 10.59 32.29 10.64 30.24C10.66 29.51 10.41 29.12 9.77 28.76C7.44 27.45 5.13 26.11 2.85 24.71C1.94 24.15 1.88 24.46 1.88 25.32C1.9 34.71 1.9 44.1 1.88 53.49C1.88 54.24 2.15 54.59 2.77 54.94C7.39 57.56 12 60.21 16.6 62.86C20.24 64.95 23.88 67.05 27.71 69.25L27.69 69.24Z" fill="black"/>
<path d="M32.99 54.66C32.99 49.49 33.01 44.32 32.97 39.16C32.97 38.25 33.27 37.72 34.05 37.28C42.95 32.25 51.75 27.03 60.73 22.13C62.39 21.22 62.83 21.48 62.83 23.35C62.83 33.65 62.83 43.94 62.83 54.24C62.83 54.99 62.75 55.57 61.99 56C52.99 61.09 44.13 66.44 35.02 71.33C34.68 71.51 34.36 71.79 33.94 71.75C32.99 71.67 33 70.98 33 70.28C33 65.07 33 59.87 33 54.66H32.99ZM34.87 53.99C34.87 58.64 34.87 63.3 34.87 67.95C34.87 69.29 34.88 69.31 36.09 68.62C44.12 64.03 52.14 59.43 60.19 54.87C60.91 54.46 61.02 53.96 61.02 53.24C61 43.97 61.01 34.7 61.01 25.43C61.01 24.09 61.01 24.08 59.88 24.72C51.85 29.3 43.82 33.9 35.77 38.45C35.09 38.83 34.85 39.25 34.86 40.02C34.9 44.67 34.88 49.33 34.88 53.98L34.87 53.99Z" fill="black"/>
<path d="M30.36 35.33C30.04 35.17 29.73 35.01 29.42 34.85C25.8 32.86 22.18 30.87 18.56 28.88C17.34 28.21 17.31 27.53 18.51 26.83C27.75 21.43 37 16.05 46.23 10.65C47.06 10.16 47.76 10.13 48.62 10.62C52.44 12.81 56.31 14.93 60.15 17.08C61.42 17.8 61.43 18.47 60.14 19.18C50.47 24.46 40.8 29.72 31.13 34.98C30.89 35.11 30.64 35.2 30.35 35.33H30.36ZM57.73 18.08C57.58 17.77 57.28 17.65 57.01 17.49C54.12 15.88 51.21 14.3 48.35 12.65C47.66 12.25 47.15 12.33 46.51 12.7C38.18 17.58 29.85 22.44 21.51 27.28C20.68 27.76 20.93 27.97 21.58 28.32C24.28 29.78 26.99 31.24 29.65 32.76C30.26 33.11 30.66 33.05 31.25 32.72C36.29 29.95 41.35 27.23 46.41 24.49C49.97 22.55 53.53 20.61 57.09 18.66C57.35 18.52 57.71 18.47 57.75 18.07L57.73 18.08Z" fill="black"/>
<path d="M14.83 24.42C14.58 24.32 14.35 24.25 14.15 24.15C10.57 22.42 7 20.68 3.52 18.75C3.01 18.47 2.37 18.25 2.37 17.54C2.37 16.82 3.04 16.63 3.54 16.34C12.42 11.28 21.31 6.23 30.19 1.15C30.96 0.709999 31.56 0.699999 32.35 1.14C35.44 2.86 38.58 4.5 41.69 6.18C43.63 7.23 43.65 7.7 41.82 8.86C34.96 13.18 27.84 17.07 20.8 21.07C19.09 22.04 17.38 23.02 15.68 23.99C15.41 24.14 15.13 24.28 14.85 24.42H14.83ZM14.68 22.25C15.02 22.08 15.34 21.94 15.65 21.77C17.4 20.78 19.13 19.77 20.89 18.79C27.04 15.34 33.19 11.89 39.2 8.22C39.46 8.06 39.89 7.98 39.9 7.65C39.92 7.22 39.43 7.18 39.14 7.02C36.75 5.73 34.34 4.46 31.96 3.16C31.45 2.88 31.05 2.88 30.55 3.18C28.33 4.46 26.09 5.71 23.87 6.97C18.12 10.24 12.37 13.51 6.62 16.8C6.27 17 5.67 17.1 5.71 17.6C5.74 17.99 6.29 18.08 6.63 18.26C9.06 19.49 11.49 20.7 13.93 21.92C14.17 22.04 14.42 22.15 14.68 22.27V22.25Z" fill="black"/>
<path d="M87.82 63C89.34 61.59 90.15 61.63 91.48 63.13C91.66 62.86 91.78 62.54 92.01 62.35C92.65 61.81 93.42 61.85 94.13 62.11C94.83 62.37 95.08 63 95.08 63.73C95.08 65.9 95.05 68.07 95.1 70.23C95.12 70.98 94.77 71 94.19 71.04C93.44 71.1 93.48 70.69 93.48 70.19C93.49 68.46 93.49 66.72 93.48 64.99C93.48 64.3 93.6 63.41 92.57 63.4C91.48 63.38 91.55 64.29 91.54 65.03C91.52 66.76 91.5 68.5 91.55 70.23C91.57 70.98 91.23 71.01 90.64 71.04C89.94 71.08 89.88 70.77 89.89 70.21C89.92 68.67 89.9 67.13 89.89 65.6C89.89 65.29 89.89 64.97 89.85 64.66C89.75 64.04 89.7 63.32 88.8 63.39C87.97 63.45 87.83 64.07 87.83 64.75C87.83 65.78 87.83 66.8 87.83 67.83C87.83 68.58 87.8 69.33 87.83 70.08C87.86 70.7 87.83 71.07 87 71.07C86.17 71.07 86.15 70.72 86.16 70.09C86.19 67.72 86.16 65.36 86.19 62.99C86.19 62.66 85.84 61.99 86.63 62.05C87.13 62.09 88.06 61.52 87.82 63Z" fill="black"/>
<path d="M137.74 62.67C137.74 60.71 137.76 58.9 137.73 57.09C137.72 56.48 137.88 56.28 138.51 56.28C139.13 56.28 139.3 56.46 139.3 57.08C139.27 61.45 139.3 65.82 139.28 70.19C139.28 70.46 139.48 70.91 139.04 70.98C138.64 71.04 138.01 71.23 137.84 70.86C137.53 70.2 137.37 70.55 137.03 70.78C136.08 71.43 134.92 71.16 134.51 70.05C133.66 67.73 133.65 65.33 134.48 63.02C134.95 61.73 136.1 61.62 137.74 62.67ZM137.77 66.58C137.79 65.76 137.8 64.93 137.54 64.14C137.41 63.75 137.19 63.41 136.74 63.38C136.29 63.35 135.98 63.62 135.87 64.03C135.46 65.69 135.46 67.35 135.87 69.01C135.98 69.44 136.29 69.68 136.73 69.66C137.18 69.63 137.4 69.31 137.53 68.91C137.77 68.15 137.79 67.37 137.77 66.58Z" fill="black"/>
<path d="M182.03 62.67C182.03 60.71 182.05 58.9 182.02 57.09C182.01 56.48 182.17 56.28 182.8 56.29C183.42 56.29 183.59 56.47 183.59 57.09C183.56 61.46 183.59 65.83 183.57 70.2C183.57 70.47 183.77 70.92 183.33 70.99C182.93 71.05 182.3 71.24 182.13 70.87C181.82 70.21 181.66 70.56 181.32 70.79C180.37 71.44 179.2 71.17 178.8 70.06C177.95 67.74 177.94 65.34 178.77 63.03C179.24 61.74 180.39 61.63 182.03 62.68V62.67ZM182.06 66.48C182.08 65.69 182.09 64.91 181.83 64.15C181.68 63.72 181.45 63.36 180.93 63.38C180.46 63.4 180.21 63.73 180.13 64.12C179.78 65.71 179.79 67.3 180.13 68.89C180.23 69.34 180.52 69.68 181.03 69.66C181.48 69.64 181.71 69.32 181.84 68.92C182.1 68.12 182.1 67.3 182.08 66.48H182.06Z" fill="black"/>
<path d="M119.86 62.99C120.67 61.94 121.54 61.72 122.45 62.09C123.36 62.46 123.41 63.35 123.41 64.2C123.41 66.21 123.41 68.22 123.43 70.22C123.43 70.79 123.34 71.04 122.67 71.04C121.95 71.04 121.86 70.76 121.86 70.15C121.86 68.38 121.82 66.61 121.78 64.84C121.76 64.12 121.76 63.27 120.76 63.32C119.8 63.37 119.8 64.2 119.8 64.93C119.8 66.7 119.76 68.48 119.82 70.24C119.85 71.02 119.49 71.01 118.91 71.03C118.29 71.05 118.12 70.87 118.12 70.25C118.16 67.77 118.12 65.29 118.14 62.81C118.14 62.47 117.94 61.94 118.64 62.02C119.14 62.08 119.89 61.71 119.85 62.99H119.86Z" fill="black"/>
<path d="M175.37 66.82C175.25 66.82 175.13 66.82 175.02 66.82C173.33 66.82 172.9 67.57 173.73 69.12C173.92 69.48 174.18 69.8 174.63 69.77C175.06 69.74 175.34 69.47 175.47 69.05C175.54 68.83 175.58 68.59 175.65 68.37C175.86 67.76 176.38 68.07 176.75 68.05C177.28 68.03 177.1 68.44 177.05 68.73C176.8 70.27 176.04 71.03 174.72 71.08C173.21 71.13 172.45 70.56 172.09 68.97C171.7 67.26 171.7 65.52 172.16 63.83C172.46 62.74 173.12 61.98 174.41 61.95C175.69 61.92 176.36 62.61 176.78 63.69C176.91 64.02 176.97 64.37 177.04 64.72C177.47 66.75 177.41 66.82 175.37 66.82ZM174.48 65.69C174.89 65.55 175.61 65.98 175.46 65C175.35 64.27 175.41 63.29 174.42 63.31C173.41 63.33 173.54 64.39 173.44 65.07C173.29 66.04 174.12 65.48 174.48 65.69Z" fill="black"/>
<path d="M82.7 66.82C82.58 66.82 82.46 66.8 82.35 66.82C81.85 66.94 81.09 66.48 80.87 67.12C80.62 67.86 80.83 68.7 81.3 69.36C81.82 70.08 82.57 69.83 82.94 68.86C83.07 68.51 82.91 67.97 83.63 68C84.32 68.02 84.64 68.07 84.41 68.91C83.99 70.42 83.39 71.04 82.04 71.07C80.59 71.1 79.85 70.54 79.49 69C79.08 67.29 79.1 65.56 79.55 63.86C79.84 62.77 80.47 61.96 81.77 61.94C83.01 61.92 83.76 62.45 84.21 63.74C84.31 64.04 84.36 64.35 84.43 64.66C84.87 66.74 84.82 66.81 82.71 66.81L82.7 66.82ZM81.89 65.69C82.33 65.58 83.03 65.94 82.87 64.99C82.75 64.25 82.8 63.29 81.81 63.32C80.82 63.36 80.94 64.41 80.84 65.1C80.7 66.07 81.55 65.47 81.88 65.69H81.89Z" fill="black"/>
<path d="M144.32 66.82C144.2 66.82 144.08 66.82 143.97 66.82C142.31 66.82 141.87 67.61 142.71 69.14C142.91 69.49 143.17 69.82 143.62 69.77C144.05 69.72 144.33 69.45 144.45 69.04C144.52 68.81 144.55 68.58 144.63 68.36C144.86 67.77 145.37 68.07 145.74 68.07C146.26 68.07 146.06 68.48 146.01 68.77C145.75 70.32 145 71.06 143.67 71.1C142.16 71.14 141.42 70.58 141.05 68.96C140.67 67.29 140.68 65.6 141.11 63.94C141.45 62.61 142.21 62 143.41 61.98C144.62 61.96 145.39 62.54 145.81 63.84C145.91 64.14 145.96 64.45 146.02 64.76C146.44 66.78 146.39 66.84 144.33 66.84L144.32 66.82ZM143.43 65.69C143.83 65.53 144.58 66.03 144.44 65.03C144.34 64.29 144.39 63.33 143.42 63.32C142.4 63.32 142.54 64.38 142.42 65.06C142.25 66.03 143.08 65.5 143.43 65.69Z" fill="black"/>
<path d="M160.48 66.56C160.46 65.41 160.52 64.28 161.03 63.22C161.43 62.41 162.06 61.98 162.99 61.95C163.95 61.92 164.67 62.25 165.13 63.11C165.67 64.11 165.76 65.19 165.8 66.3C165.82 66.88 165.48 66.81 165.12 66.81C164.33 66.81 163.54 66.84 162.76 66.81C162.18 66.78 161.96 67.03 162.03 67.57C162.08 67.96 162.15 68.35 162.23 68.73C162.35 69.26 162.61 69.73 163.21 69.75C163.83 69.77 164.15 69.28 164.19 68.76C164.26 67.82 164.93 67.92 165.44 68.06C166.12 68.24 165.63 68.79 165.55 69.13C165.23 70.5 164.56 71.05 163.28 71.08C161.93 71.11 161.16 70.55 160.76 69.25C160.49 68.37 160.47 67.47 160.48 66.56ZM163.08 65.69C163.42 65.48 164.21 66.07 164.1 65.06C164.02 64.31 164.07 63.34 163.11 63.32C162.01 63.3 162.17 64.43 162.07 65.14C161.95 65.97 162.72 65.5 163.08 65.69Z" fill="black"/>
<path d="M116.51 66.46C116.57 67.63 116.47 68.72 115.98 69.74C115.52 70.69 114.77 71.11 113.7 71.1C112.67 71.09 111.91 70.67 111.55 69.75C110.71 67.62 110.71 65.44 111.55 63.31C111.93 62.35 112.75 61.93 113.82 61.95C114.9 61.97 115.63 62.44 116.04 63.4C116.46 64.39 116.59 65.45 116.51 66.46ZM114.84 66.59C114.8 65.81 114.92 65.01 114.68 64.24C114.55 63.8 114.33 63.42 113.82 63.39C113.3 63.36 113.02 63.69 112.92 64.15C112.58 65.74 112.58 67.35 112.94 68.94C113.04 69.36 113.32 69.6 113.79 69.6C114.27 69.6 114.47 69.33 114.63 68.92C114.93 68.16 114.79 67.36 114.84 66.58V66.59Z" fill="black"/>
<path d="M96.52 66.53C96.51 65.62 96.58 64.72 96.86 63.85C97.28 62.55 98.09 61.95 99.38 61.97C100.63 61.99 101.41 62.55 101.76 63.84C102.24 65.58 102.25 67.35 101.79 69.09C101.42 70.5 100.6 71.1 99.25 71.08C97.99 71.07 97.22 70.44 96.82 69.09C96.73 68.79 96.64 68.48 96.61 68.17C96.55 67.62 96.54 67.07 96.52 66.52V66.53ZM100.39 66.57C100.34 65.79 100.47 65 100.23 64.23C100.09 63.79 99.87 63.42 99.36 63.39C98.84 63.37 98.57 63.71 98.47 64.17C98.14 65.73 98.15 67.29 98.47 68.85C98.56 69.31 98.84 69.61 99.37 69.61C99.93 69.61 100.09 69.23 100.23 68.8C100.48 68.07 100.35 67.32 100.4 66.57H100.39Z" fill="black"/>
<path d="M157.18 67.2C157.46 65.9 157.83 64.6 158 63.29C158.15 62.09 158.68 61.75 159.8 62.13C159.1 64.86 158.39 67.58 157.69 70.31C157.59 70.7 157.53 71.05 156.97 71.04C156.43 71.04 156.35 70.73 156.24 70.32C155.59 67.86 154.9 65.4 154.26 62.93C154.18 62.64 153.74 62.09 154.44 62.07C154.9 62.05 155.67 61.57 155.85 62.57C156.06 63.69 156.33 64.79 156.57 65.91C156.67 66.34 156.77 66.77 156.87 67.2C156.98 67.2 157.08 67.2 157.19 67.2H157.18Z" fill="black"/>
<path d="M149.41 63.8C149.41 65.93 149.39 68.05 149.42 70.18C149.43 70.82 149.29 71.06 148.59 71.05C147.95 71.04 147.72 70.91 147.73 70.22C147.76 65.85 147.77 61.48 147.73 57.11C147.73 56.37 148.01 56.3 148.62 56.3C149.21 56.3 149.44 56.42 149.42 57.07C149.38 59.31 149.4 61.56 149.4 63.8H149.41Z" fill="black"/>
<path d="M103.91 67.16C103.91 66.29 103.93 65.43 103.91 64.56C103.9 64.03 104.16 63.42 103.21 63.25C102.82 63.18 102.9 62.14 103.15 62.12C104.29 62.02 103.85 61.22 103.91 60.67C103.97 60.12 103.7 59.52 104.73 59.55C105.74 59.57 105.46 60.17 105.53 60.71C105.6 61.23 105.12 62 106.23 62.11C106.46 62.13 106.57 63.19 106.15 63.27C105.31 63.43 105.53 63.94 105.53 64.4C105.51 66.33 105.49 68.26 105.53 70.19C105.55 70.89 105.3 71.02 104.66 71.04C103.99 71.06 103.89 70.8 103.91 70.23C103.95 69.21 103.92 68.18 103.92 67.16H103.91Z" fill="black"/>
<path d="M125.26 69.36C126.94 69.96 127.82 69.53 127.61 68.29C127.53 67.81 127.18 67.55 126.87 67.26C126.41 66.83 125.9 66.45 125.47 65.99C124.66 65.1 124.6 64.07 125.15 63.04C125.69 62.04 126.59 61.82 127.67 61.92C128.83 62.02 128.7 62.73 128.55 63.55C128.26 63.47 127.99 63.39 127.73 63.33C127.2 63.21 126.79 63.44 126.52 63.86C126.25 64.27 126.35 64.73 126.67 65.06C127.22 65.62 127.85 66.11 128.39 66.67C129.26 67.57 129.3 68.65 128.86 69.75C128.48 70.69 127.72 71.12 126.71 71.1C125.3 71.07 124.98 70.94 125.27 69.38L125.26 69.36Z" fill="black"/>
<path d="M169.02 62.92C169.19 62.71 169.34 62.49 169.53 62.31C169.83 62.01 170.27 61.82 170.6 61.97C170.92 62.12 170.7 62.61 170.75 62.95C170.83 63.47 170.49 63.47 170.11 63.53C169.17 63.67 168.82 64.32 168.83 65.22C168.83 66.87 168.8 68.53 168.85 70.18C168.87 70.82 168.72 71.06 168.02 71.05C167.38 71.04 167.14 70.91 167.16 70.21C167.2 67.81 167.16 65.4 167.19 63C167.19 62.63 166.86 61.95 167.73 62.02C168.28 62.07 169.16 61.63 169.03 62.91L169.02 62.92Z" fill="black"/>
<path d="M151.3 66.4C151.3 65.18 151.35 63.96 151.28 62.75C151.24 62.05 151.56 61.98 152.1 62.01C152.57 62.04 152.99 61.91 152.97 62.7C152.91 65.25 152.91 67.8 152.97 70.35C152.99 71.15 152.54 70.99 152.09 71.03C151.52 71.07 151.25 70.96 151.28 70.28C151.34 68.99 151.3 67.69 151.3 66.4Z" fill="black"/>
<path d="M107.73 66.4C107.73 65.18 107.78 63.96 107.71 62.75C107.67 62.05 107.98 61.98 108.53 62.01C109 62.04 109.42 61.91 109.41 62.7C109.35 65.25 109.35 67.8 109.41 70.35C109.43 71.15 108.99 70.99 108.53 71.03C107.97 71.07 107.68 70.96 107.72 70.29C107.78 69 107.74 67.7 107.74 66.41L107.73 66.4Z" fill="black"/>
<path d="M153.2 59.32C153.04 60.01 152.74 60.47 152.02 60.42C151.31 60.38 150.99 59.97 151.01 59.27C151.04 58.6 151.48 58.28 152.06 58.26C152.76 58.24 153.03 58.78 153.2 59.32Z" fill="black"/>
<path d="M108.46 58.22C109.15 58.31 109.59 58.72 109.58 59.36C109.58 60 109.17 60.45 108.45 60.42C107.81 60.39 107.46 60.04 107.43 59.39C107.4 58.65 107.86 58.38 108.46 58.22Z" fill="black"/>
<path d="M57.74 18.08C57.7 18.48 57.33 18.53 57.08 18.67C53.53 20.62 49.97 22.57 46.4 24.5C41.35 27.24 36.28 29.96 31.24 32.73C30.65 33.05 30.25 33.11 29.64 32.77C26.97 31.25 24.27 29.78 21.57 28.33C20.92 27.98 20.67 27.78 21.5 27.29C29.84 22.45 38.18 17.58 46.5 12.71C47.14 12.34 47.65 12.26 48.34 12.66C51.21 14.31 54.11 15.89 57 17.5C57.27 17.65 57.57 17.78 57.72 18.09L57.74 18.08Z" fill="#971E3A"/>
<path d="M14.68 22.25C14.42 22.13 14.17 22.02 13.93 21.9C11.5 20.68 9.06 19.47 6.63 18.24C6.29 18.07 5.74 17.97 5.71 17.58C5.67 17.08 6.27 16.98 6.62 16.78C12.36 13.49 18.12 10.22 23.87 6.95C26.1 5.68 28.34 4.44 30.55 3.16C31.05 2.87 31.45 2.86 31.96 3.14C34.34 4.45 36.75 5.71 39.14 7C39.43 7.16 39.92 7.2 39.9 7.63C39.88 7.96 39.46 8.04 39.2 8.2C33.18 11.87 27.04 15.33 20.89 18.77C19.14 19.75 17.4 20.76 15.65 21.75C15.34 21.92 15.02 22.06 14.68 22.23V22.25Z" fill="#971E3A"/>
</g>
<defs>
<clipPath id="clip0_289_467">
<rect width="185.72" height="71.76" fill="white"/>
</clipPath>
</defs>
</svg>
